<svg width="15" height="4" viewBox="0 0 15 4" fill="none" xmlns="http://www.w3.org/2000/svg">
<path d="M2.1505 3.5C1.73651 3.5 1.33947 3.34196 1.04673 3.06066C0.753997 2.77936 0.589539 2.39782 0.589539 2C0.589539 1.60218 0.753997 1.22064 1.04673 0.93934C1.33947 0.658035 1.73651 0.5 2.1505 0.5C2.56449 0.5 2.96153 0.658035 3.25427 0.93934C3.54701 1.22064 3.71146 1.60218 3.71146 2C3.71146 2.39782 3.54701 2.77936 3.25427 3.06066C2.96153 3.34196 2.56449 3.5 2.1505 3.5ZM7.35371 3.5C6.93972 3.5 6.54268 3.34196 6.24994 3.06066C5.95721 2.77936 5.79275 2.39782 5.79275 2C5.79275 1.60218 5.95721 1.22064 6.24994 0.93934C6.54268 0.658035 6.93972 0.5 7.35371 0.5C7.7677 0.5 8.16474 0.658035 8.45748 0.93934C8.75021 1.22064 8.91467 1.60218 8.91467 2C8.91467 2.39782 8.75021 2.77936 8.45748 3.06066C8.16474 3.34196 7.7677 3.5 7.35371 3.5ZM12.5569 3.5C12.1429 3.5 11.7459 3.34196 11.4532 3.06066C11.1604 2.77936 10.996 2.39782 10.996 2C10.996 1.60218 11.1604 1.22064 11.4532 0.93934C11.7459 0.658035 12.1429 0.5 12.5569 0.5C12.9709 0.5 13.3679 0.658035 13.6607 0.93934C13.9534 1.22064 14.1179 1.60218 14.1179 2C14.1179 2.39782 13.9534 2.77936 13.6607 3.06066C13.3679 3.34196 12.9709 3.5 12.5569 3.5Z" fill="#1B1B1B"/>
</svg>
