<?xml version="1.0" encoding="iso-8859-1"?>
<!-- Generator: Adobe Illustrator 19.0.0, SVG Export Plug-In . SVG Version: 6.00 Build 0)  -->
<svg version="1.1" id="Layer_1" xmlns="http://www.w3.org/2000/svg" xmlns:xlink="http://www.w3.org/1999/xlink" x="0px" y="0px"
	 viewBox="0 0 511.998 511.998" style="enable-background:new 0 0 511.998 511.998;" xml:space="preserve">
<g>
	<g>
		<g fill="#2b4c69">
			<path d="M430.584,0H183.389c-6.544,0-12.82,2.599-17.448,7.229L63.968,109.198c-4.628,4.628-7.229,10.904-7.229,17.448v360.676
				c0,13.628,11.049,24.677,24.677,24.677h349.166c13.628,0,24.677-11.049,24.677-24.677V24.677C455.261,11.049,444.212,0,430.584,0
				z M176.196,66.767v52.687h-52.688L176.196,66.767z M405.907,462.646H106.094V168.809h94.779
				c13.628,0,24.677-11.049,24.677-24.677V49.354h180.357V462.646z"/>
			<path d="M167.999,229.969c0,13.628,11.049,24.677,24.677,24.677h140.646c13.628,0,24.677-11.049,24.677-24.677
				c0-13.628-11.049-24.677-24.677-24.677H192.675C179.047,205.293,167.999,216.341,167.999,229.969z"/>
			<path d="M333.321,286.551H192.675c-13.628,0-24.677,11.049-24.677,24.677c0,13.628,11.049,24.677,24.677,24.677h140.646
				c13.628,0,24.677-11.049,24.677-24.677C357.998,297.6,346.95,286.551,333.321,286.551z"/>
			<path d="M333.321,367.812H192.675c-13.628,0-24.677,11.049-24.677,24.677c0,13.628,11.049,24.677,24.677,24.677h140.646
				c13.628,0,24.677-11.049,24.677-24.677C357.998,378.861,346.95,367.812,333.321,367.812z"/>
		</g>
	</g>
</g>
<g>
</g>
<g>
</g>
<g>
</g>
<g>
</g>
<g>
</g>
<g>
</g>
<g>
</g>
<g>
</g>
<g>
</g>
<g>
</g>
<g>
</g>
<g>
</g>
<g>
</g>
<g>
</g>
<g>
</g>
</svg>
