<?xml version="1.0" encoding="iso-8859-1"?>
<!-- Generator: Adobe Illustrator 19.0.0, SVG Export Plug-In . SVG Version: 6.00 Build 0)  -->
<svg version="1.1" id="Layer_1" xmlns="http://www.w3.org/2000/svg" xmlns:xlink="http://www.w3.org/1999/xlink" x="0px" y="0px"
	 viewBox="0 0 488.369 488.369" style="enable-background:new 0 0 488.369 488.369;" xml:space="preserve">
<path style="fill:#15CC93;" d="M392.428,286.373c0,4.632-3.757,8.381-8.365,8.381H245.335c-4.647,0-8.397-3.757-8.397-8.381V147.637
	c0-4.616,3.757-8.365,8.397-8.365h138.721c4.616,0,8.365,3.757,8.365,8.365v138.736H392.428z"/>
<path style="fill:#04A6AA;" d="M392.428,147.637v138.736c0,4.632-3.757,8.381-8.365,8.381H245.335"/>
<path style="fill:#00B7A5;" d="M236.938,147.637c0-4.616,3.757-8.365,8.397-8.365h138.721c4.616,0,8.365,3.757,8.365,8.365v138.736
	c0,4.632-3.757,8.381-8.365,8.381"/>
<g>
	<path style="fill:#26DDA0;" d="M268.264,272.888c0,1.339-1.103,2.45-2.45,2.45l0,0c-1.363,0-2.45-1.111-2.45-2.45V161.146
		c0-1.355,1.087-2.45,2.45-2.45l0,0c1.347,0,2.45,1.095,2.45,2.45V272.888z"/>
	<path style="fill:#26DDA0;" d="M292.691,272.888c0,1.339-1.095,2.45-2.458,2.45l0,0c-1.347,0-2.426-1.111-2.426-2.45V161.146
		c0-1.355,1.079-2.45,2.426-2.45l0,0c1.363,0,2.458,1.095,2.458,2.45V272.888z"/>
	<path style="fill:#26DDA0;" d="M317.141,272.888c0,1.339-1.111,2.45-2.458,2.45l0,0c-1.347,0-2.442-1.111-2.442-2.45V161.146
		c0-1.355,1.095-2.45,2.442-2.45l0,0c1.347,0,2.458,1.095,2.458,2.45V272.888z"/>
	<path style="fill:#26DDA0;" d="M341.583,272.888c0,1.339-1.111,2.45-2.45,2.45l0,0c-1.355,0-2.45-1.111-2.45-2.45V161.146
		c0-1.355,1.095-2.45,2.45-2.45l0,0c1.339,0,2.45,1.095,2.45,2.45V272.888z"/>
	<path style="fill:#26DDA0;" d="M366.025,272.888c0,1.339-1.103,2.45-2.458,2.45l0,0c-1.347,0-2.442-1.111-2.442-2.45V161.146
		c0-1.355,1.095-2.45,2.442-2.45l0,0c1.355,0,2.458,1.095,2.458,2.45V272.888z"/>
</g>
<path style="fill:#C17E52;" d="M245.461,274.794c0,5.23-4.23,9.46-9.46,9.46H79.407c-5.23,0-9.468-4.23-9.468-9.46V118.193
	c0-5.23,4.238-9.46,9.468-9.46H236c5.23,0,9.46,4.23,9.46,9.46V274.794z"/>
<path style="fill:#B56841;" d="M245.461,118.193v156.601c0,5.23-4.23,9.46-9.46,9.46H79.407"/>
<path style="fill:#A86743;" d="M69.939,118.193c0-5.23,4.238-9.46,9.468-9.46H236c5.23,0,9.46,4.23,9.46,9.46v156.601
	c0,5.23-4.23,9.46-9.46,9.46"/>
<path style="fill:#EFE1A5;" d="M130.914,108.733v46.537c0,2.245,1.812,4.064,4.049,4.064h45.497c2.229,0,4.049-1.812,4.049-4.064
	v-46.537H130.914z"/>
<path style="fill:#DBCB86;" d="M180.46,159.334c2.229,0,4.049-1.812,4.049-4.064v-46.537h-53.595"/>
<path style="fill:#969590;" d="M477.357,330.067c0,21.291-17.266,38.558-38.558,38.558H49.569
	c-21.291,0-38.558-17.258-38.558-38.558l0,0c0-21.291,17.258-38.558,38.558-38.558H438.8
	C460.083,291.517,477.357,308.775,477.357,330.067L477.357,330.067z"/>
<path style="fill:#84837E;" d="M49.569,291.517H438.8c21.283,0,38.558,17.258,38.558,38.558l0,0
	c0,21.291-17.266,38.558-38.558,38.558"/>
<path style="fill:#757473;" d="M438.8,379.636H49.569C22.229,379.636,0,357.408,0,330.067c0-27.341,22.229-49.569,49.569-49.569
	H438.8c27.341,0,49.569,22.229,49.569,49.569C488.369,357.408,466.141,379.636,438.8,379.636z M49.569,302.529
	c-15.187,0-27.538,12.351-27.538,27.538c0,15.187,12.351,27.538,27.538,27.538H438.8c15.179,0,27.538-12.351,27.538-27.538
	c0-15.187-12.359-27.538-27.538-27.538H49.569z"/>
<circle style="fill:#B7B6AE;" cx="51.035" cy="330.043" r="9.854"/>
<path style="fill:#C9C7BD;" d="M44.064,323.104c3.844-3.86,10.09-3.86,13.942,0c3.86,3.828,3.844,10.09,0,13.942"/>
<path style="fill:#757473;" d="M61.29,340.315c-5.664,5.679-14.864,5.679-20.512,0c-5.671-5.648-5.671-14.848,0-20.512
	c5.656-5.664,14.856-5.664,20.512,0S66.954,334.667,61.29,340.315z M47.34,326.38c-2.048,2.032-2.048,5.341,0,7.389
	c2.032,2.048,5.356,2.048,7.389,0c2.048-2.048,2.048-5.356,0-7.389C52.689,324.348,49.373,324.348,47.34,326.38z"/>
<circle style="fill:#B7B6AE;" cx="93.956" cy="330.043" r="9.854"/>
<path style="fill:#C9C7BD;" d="M86.985,323.104c3.844-3.86,10.09-3.86,13.942,0c3.86,3.828,3.844,10.09,0,13.942"/>
<path style="fill:#757473;" d="M104.212,340.315c-5.664,5.679-14.864,5.679-20.512,0c-5.671-5.648-5.671-14.848,0-20.512
	c5.656-5.664,14.856-5.664,20.512,0C109.867,325.467,109.875,334.667,104.212,340.315z M90.262,326.38
	c-2.048,2.032-2.048,5.341,0,7.389c2.032,2.048,5.356,2.048,7.389,0c2.048-2.048,2.048-5.356,0-7.389
	C95.618,324.348,92.294,324.348,90.262,326.38z"/>
<circle style="fill:#B7B6AE;" cx="136.877" cy="330.043" r="9.854"/>
<path style="fill:#C9C7BD;" d="M129.906,323.104c3.844-3.86,10.09-3.86,13.942,0c3.86,3.828,3.844,10.09,0,13.942"/>
<path style="fill:#757473;" d="M147.141,340.315c-5.664,5.679-14.864,5.679-20.512,0c-5.671-5.648-5.671-14.848,0-20.512
	c5.656-5.664,14.856-5.664,20.512,0C152.797,325.467,152.797,334.667,147.141,340.315z M133.183,326.38
	c-2.048,2.032-2.048,5.341,0,7.389c2.032,2.048,5.356,2.048,7.389,0c2.048-2.048,2.048-5.356,0-7.389
	C138.539,324.348,135.215,324.348,133.183,326.38z"/>
<circle style="fill:#B7B6AE;" cx="179.799" cy="330.043" r="9.854"/>
<path style="fill:#C9C7BD;" d="M172.828,323.104c3.844-3.86,10.09-3.86,13.942,0c3.86,3.828,3.844,10.09,0,13.942"/>
<path style="fill:#757473;" d="M190.062,340.315c-5.663,5.679-14.864,5.679-20.512,0c-5.671-5.648-5.671-14.848,0-20.512
	c5.656-5.664,14.856-5.664,20.512,0C195.718,325.467,195.726,334.667,190.062,340.315z M176.104,326.38
	c-2.048,2.032-2.048,5.341,0,7.389c2.032,2.048,5.356,2.048,7.389,0c2.048-2.048,2.048-5.356,0-7.389
	C181.461,324.348,178.137,324.348,176.104,326.38z"/>
<circle style="fill:#B7B6AE;" cx="222.72" cy="330.043" r="9.854"/>
<path style="fill:#C9C7BD;" d="M215.757,323.104c3.844-3.86,10.09-3.86,13.942,0c3.86,3.828,3.844,10.09,0,13.942"/>
<path style="fill:#757473;" d="M232.984,340.315c-5.664,5.679-14.864,5.679-20.512,0c-5.671-5.648-5.671-14.848,0-20.512
	c5.656-5.664,14.856-5.664,20.512,0C238.639,325.467,238.647,334.667,232.984,340.315z M219.034,326.38
	c-2.048,2.032-2.048,5.341,0,7.389c2.032,2.048,5.356,2.048,7.389,0c2.048-2.048,2.048-5.356,0-7.389
	C224.382,324.348,221.058,324.348,219.034,326.38z"/>
<circle style="fill:#B7B6AE;" cx="265.689" cy="330.043" r="9.854"/>
<path style="fill:#C9C7BD;" d="M258.678,323.104c3.844-3.86,10.09-3.86,13.942,0c3.86,3.828,3.844,10.09,0,13.942"/>
<path style="fill:#757473;" d="M275.905,340.315c-5.664,5.679-14.864,5.679-20.512,0c-5.671-5.648-5.671-14.848,0-20.512
	c5.656-5.664,14.856-5.664,20.512,0C281.561,325.467,281.568,334.667,275.905,340.315z M261.955,326.38
	c-2.048,2.032-2.048,5.341,0,7.389c2.032,2.048,5.356,2.048,7.389,0c2.048-2.048,2.048-5.356,0-7.389
	C267.311,324.348,263.987,324.348,261.955,326.38z"/>
<circle style="fill:#B7B6AE;" cx="308.571" cy="330.043" r="9.854"/>
<path style="fill:#C9C7BD;" d="M301.6,323.104c3.844-3.86,10.09-3.86,13.942,0c3.86,3.828,3.844,10.09,0,13.942"/>
<path style="fill:#757473;" d="M318.834,340.315c-5.664,5.679-14.864,5.679-20.512,0c-5.671-5.648-5.671-14.848,0-20.512
	c5.656-5.664,14.856-5.664,20.512,0S324.49,334.667,318.834,340.315z M304.876,326.38c-2.048,2.032-2.048,5.341,0,7.389
	c2.032,2.048,5.356,2.048,7.389,0c2.048-2.048,2.048-5.356,0-7.389C310.233,324.348,306.909,324.348,304.876,326.38z"/>
<circle style="fill:#B7B6AE;" cx="351.468" cy="330.043" r="9.854"/>
<path style="fill:#C9C7BD;" d="M344.521,323.104c3.844-3.86,10.09-3.86,13.942,0c3.86,3.828,3.844,10.09,0,13.942"/>
<path style="fill:#757473;" d="M361.756,340.315c-5.664,5.679-14.864,5.679-20.512,0c-5.671-5.648-5.671-14.848,0-20.512
	c5.656-5.664,14.856-5.664,20.512,0S367.419,334.667,361.756,340.315z M347.798,326.38c-2.048,2.032-2.048,5.341,0,7.389
	c2.032,2.048,5.356,2.048,7.389,0c2.048-2.048,2.048-5.356,0-7.389C353.154,324.348,349.83,324.348,347.798,326.38z"/>
<circle style="fill:#B7B6AE;" cx="394.413" cy="330.043" r="9.854"/>
<path style="fill:#C9C7BD;" d="M387.45,323.104c3.844-3.86,10.09-3.86,13.942,0c3.86,3.828,3.844,10.09,0,13.942"/>
<path style="fill:#757473;" d="M404.677,340.315c-5.664,5.679-14.864,5.679-20.512,0c-5.671-5.648-5.671-14.848,0-20.512
	c5.656-5.664,14.856-5.664,20.512,0C410.333,325.467,410.34,334.667,404.677,340.315z M390.727,326.38
	c-2.048,2.032-2.048,5.341,0,7.389c2.032,2.048,5.356,2.048,7.389,0c2.048-2.048,2.048-5.356,0-7.389
	C396.075,324.348,392.751,324.348,390.727,326.38z"/>
<circle style="fill:#B7B6AE;" cx="437.327" cy="330.043" r="9.854"/>
<path style="fill:#C9C7BD;" d="M430.371,323.104c3.844-3.86,10.09-3.86,13.942,0c3.86,3.828,3.844,10.09,0,13.942"/>
<path style="fill:#757473;" d="M447.598,340.315c-5.664,5.679-14.864,5.679-20.512,0c-5.671-5.648-5.671-14.848,0-20.512
	c5.656-5.664,14.856-5.664,20.512,0C453.254,325.467,453.262,334.667,447.598,340.315z M433.648,326.38
	c-2.048,2.032-2.048,5.341,0,7.389c2.032,2.048,5.356,2.048,7.389,0c2.048-2.048,2.048-5.356,0-7.389
	C438.997,324.348,435.681,324.348,433.648,326.38z"/>
<g>
</g>
<g>
</g>
<g>
</g>
<g>
</g>
<g>
</g>
<g>
</g>
<g>
</g>
<g>
</g>
<g>
</g>
<g>
</g>
<g>
</g>
<g>
</g>
<g>
</g>
<g>
</g>
<g>
</g>
</svg>
