<svg xmlns="http://www.w3.org/2000/svg" xmlns:xlink="http://www.w3.org/1999/xlink"><defs><symbol viewBox="0 0 78.369 78.369" id="check"><path fill="green" d="M78.049 19.015 29.458 67.606a1.094 1.094 0 0 1-1.548 0L.32 40.015a1.094 1.094 0 0 1 0-1.547l6.704-6.704a1.095 1.095 0 0 1 1.548 0l20.113 20.112 41.113-41.113a1.095 1.095 0 0 1 1.548 0l6.703 6.704a1.094 1.094 0 0 1 0 1.548z" /></symbol><symbol viewBox="0 0 511.998 511.998" id="invoice-icon"><g fill="#2b4c69"><path d="M430.584 0H183.389a24.668 24.668 0 0 0-17.448 7.229L63.968 109.198a24.676 24.676 0 0 0-7.229 17.448v360.676c0 13.628 11.049 24.677 24.677 24.677h349.166c13.628 0 24.677-11.049 24.677-24.677V24.677C455.261 11.049 444.212 0 430.584 0zM176.196 66.767v52.687h-52.688l52.688-52.687zm229.711 395.879H106.094V168.809h94.779c13.628 0 24.677-11.049 24.677-24.677V49.354h180.357v413.292z" /><path d="M167.999 229.969c0 13.628 11.049 24.677 24.677 24.677h140.646c13.628 0 24.677-11.049 24.677-24.677s-11.049-24.677-24.677-24.677H192.675c-13.628.001-24.676 11.049-24.676 24.677zM333.321 286.551H192.675c-13.628 0-24.677 11.049-24.677 24.677s11.049 24.677 24.677 24.677h140.646c13.628 0 24.677-11.049 24.677-24.677s-11.048-24.677-24.677-24.677zM333.321 367.812H192.675c-13.628 0-24.677 11.049-24.677 24.677s11.049 24.677 24.677 24.677h140.646c13.628 0 24.677-11.049 24.677-24.677s-11.048-24.677-24.677-24.677z" /></g></symbol><symbol viewBox="0 0 480.53 480.53" id="productsImage"><path style="fill:#768989" d="M115.623 388.204c0 5.018-4.072 9.09-9.106 9.09H67.07c-5.018 0-9.106-4.08-9.106-9.09V366.96c0-5.033 4.096-9.106 9.106-9.106h39.448a9.1 9.1 0 0 1 9.106 9.106v21.244zM463.082 388.204c0 5.018-4.08 9.09-9.106 9.09h-39.448c-5.018 0-9.106-4.08-9.106-9.09V366.96c0-5.033 4.096-9.106 9.106-9.106h39.448a9.105 9.105 0 0 1 9.106 9.106v21.244z" /><path style="fill:#c17e52" d="M266.577 311.775a7.39 7.39 0 0 1-7.389 7.389H136.836a7.38 7.38 0 0 1-7.389-7.389V189.422c0-4.08 3.3-7.389 7.389-7.389h122.352a7.39 7.39 0 0 1 7.389 7.389v122.353z" /><path style="fill:#b56841" d="M266.577 189.422v122.352a7.39 7.39 0 0 1-7.389 7.389H136.836" /><path style="fill:#a86743" d="M129.447 189.422c0-4.08 3.3-7.389 7.389-7.389h122.352a7.39 7.39 0 0 1 7.389 7.389v122.352a7.39 7.39 0 0 1-7.389 7.389" /><path style="fill:#c17e52" d="M424.115 311.775a7.39 7.39 0 0 1-7.389 7.389H294.374a7.38 7.38 0 0 1-7.389-7.389V189.422c0-4.08 3.3-7.389 7.389-7.389h122.352a7.39 7.39 0 0 1 7.389 7.389v122.353z" /><path style="fill:#b56841" d="M424.115 189.422v122.352a7.39 7.39 0 0 1-7.389 7.389H294.374" /><path style="fill:#a86743" d="M286.986 189.422c0-4.08 3.3-7.389 7.389-7.389h122.352a7.39 7.39 0 0 1 7.389 7.389v122.352a7.39 7.39 0 0 1-7.389 7.389" /><path style="fill:#c17e52" d="M340.1 156.867a7.39 7.39 0 0 1-7.389 7.389H210.359a7.385 7.385 0 0 1-7.396-7.389V34.515a7.387 7.387 0 0 1 7.396-7.396h122.352a7.39 7.39 0 0 1 7.389 7.396v122.352z" /><path style="fill:#b56841" d="M340.1 34.515v122.352a7.39 7.39 0 0 1-7.389 7.389H210.359" /><path style="fill:#a86743" d="M202.963 34.515a7.387 7.387 0 0 1 7.396-7.396h122.352a7.39 7.39 0 0 1 7.389 7.396v122.352a7.39 7.39 0 0 1-7.389 7.389" /><path style="fill:#ff7f00" d="M74.27 81.713c-7.538 0-13.643 6.105-13.643 13.643v220.018c0 7.538 6.105 13.643 13.643 13.643s13.659-6.105 13.659-13.643V95.364c-.001-7.546-6.121-13.651-13.659-13.651z" /><path style="fill:#e56505" d="M74.27 81.713c-7.538 0-13.643 6.105-13.643 13.643v85.74c0 7.538 6.105 13.643 13.643 13.643s13.659-6.105 13.659-13.643V95.364c-.001-7.546-6.121-13.651-13.659-13.651z" /><path style="fill:#e56505" d="M3.992 24.763c-5.325 5.317-5.325 13.966.016 19.291l60.613 60.629c5.341 5.325 13.966 5.341 19.306 0 5.341-5.341 5.341-13.982 0-19.306l-60.613-60.63c-5.341-5.324-13.982-5.324-19.322.016z" /><path style="fill:#93a4a5" d="M480.53 367.33c0 5.018-4.08 9.106-9.09 9.106H49.623c-5.033 0-9.106-4.096-9.106-9.106v-44a9.105 9.105 0 0 1 9.106-9.106H471.44c5.018 0 9.09 4.08 9.09 9.106v44z" /><path style="fill:#a9bfbf" d="M471.44 314.224H49.623a9.105 9.105 0 0 0-9.106 9.106v4.537a9.105 9.105 0 0 0 9.106 9.106H471.44c5.018 0 9.09-4.08 9.09-9.106v-4.537c0-5.033-4.081-9.106-9.09-9.106z" /><path style="fill:#ffc41f" d="M142.87 407.637c0 19.566-15.896 35.446-35.462 35.446s-35.446-15.88-35.446-35.446c0-19.598 15.88-35.478 35.446-35.478s35.462 15.88 35.462 35.478z" /><path style="fill:#ffa522" d="M107.408 372.159c19.566 0 35.462 15.88 35.462 35.478 0 19.566-15.896 35.446-35.462 35.446" /><path style="fill:#1a3d5b" d="M107.408 459.774c-28.751 0-52.137-23.402-52.137-52.137 0-28.767 23.387-52.153 52.137-52.153s52.137 23.387 52.137 52.153c0 28.735-23.386 52.137-52.137 52.137zm0-70.924c-10.35 0-18.771 8.428-18.771 18.786 0 10.335 8.413 18.755 18.771 18.755s18.786-8.413 18.786-18.755c0-10.35-8.436-18.786-18.786-18.786z" /><circle style="fill:#ffc41f" cx="413.639" cy="407.621" r="35.462" /><path style="fill:#ffa522" d="M388.575 382.541c13.848-13.832 36.305-13.832 50.137 0 13.863 13.848 13.848 36.305 0 50.152" /><path style="fill:#1a3d5b" d="M450.527 444.501c-20.338 20.338-53.413 20.338-73.752 0-20.338-20.338-20.338-53.398 0-73.736 20.338-20.354 53.413-20.354 73.752 0 20.322 20.33 20.322 53.397 0 73.736zm-50.137-50.153c-7.341 7.326-7.341 19.228 0 26.553 7.31 7.326 19.212 7.326 26.537 0 7.318-7.326 7.318-19.228 0-26.553-7.317-7.309-19.227-7.309-26.537 0z" /></symbol><symbol viewBox="0 0 488.369 488.369" id="returns"><path style="fill:#15cc93" d="M392.428 286.373c0 4.632-3.757 8.381-8.365 8.381H245.335c-4.647 0-8.397-3.757-8.397-8.381V147.637c0-4.616 3.757-8.365 8.397-8.365h138.721c4.616 0 8.365 3.757 8.365 8.365v138.736h.007z" /><path style="fill:#04a6aa" d="M392.428 147.637v138.736c0 4.632-3.757 8.381-8.365 8.381H245.335" /><path style="fill:#00b7a5" d="M236.938 147.637c0-4.616 3.757-8.365 8.397-8.365h138.721c4.616 0 8.365 3.757 8.365 8.365v138.736c0 4.632-3.757 8.381-8.365 8.381" /><path style="fill:#26dda0" d="M268.264 272.888a2.463 2.463 0 0 1-2.45 2.45 2.453 2.453 0 0 1-2.45-2.45V161.146a2.442 2.442 0 0 1 2.45-2.45 2.453 2.453 0 0 1 2.45 2.45v111.742zM292.691 272.888a2.46 2.46 0 0 1-2.458 2.45c-1.347 0-2.426-1.111-2.426-2.45V161.146a2.432 2.432 0 0 1 2.426-2.45 2.45 2.45 0 0 1 2.458 2.45v111.742zM317.141 272.888a2.47 2.47 0 0 1-2.458 2.45 2.456 2.456 0 0 1-2.442-2.45V161.146a2.446 2.446 0 0 1 2.442-2.45 2.46 2.46 0 0 1 2.458 2.45v111.742zM341.583 272.888a2.468 2.468 0 0 1-2.45 2.45 2.458 2.458 0 0 1-2.45-2.45V161.146a2.448 2.448 0 0 1 2.45-2.45 2.458 2.458 0 0 1 2.45 2.45v111.742zM366.025 272.888a2.465 2.465 0 0 1-2.458 2.45 2.456 2.456 0 0 1-2.442-2.45V161.146a2.446 2.446 0 0 1 2.442-2.45 2.454 2.454 0 0 1 2.458 2.45v111.742z" /><path style="fill:#c17e52" d="M245.461 274.794c0 5.23-4.23 9.46-9.46 9.46H79.407c-5.23 0-9.468-4.23-9.468-9.46V118.193c0-5.23 4.238-9.46 9.468-9.46H236c5.23 0 9.46 4.23 9.46 9.46v156.601z" /><path style="fill:#b56841" d="M245.461 118.193v156.601c0 5.23-4.23 9.46-9.46 9.46H79.407" /><path style="fill:#a86743" d="M69.939 118.193c0-5.23 4.238-9.46 9.468-9.46H236c5.23 0 9.46 4.23 9.46 9.46v156.601c0 5.23-4.23 9.46-9.46 9.46" /><path style="fill:#efe1a5" d="M130.914 108.733v46.537a4.056 4.056 0 0 0 4.049 4.064h45.497a4.056 4.056 0 0 0 4.049-4.064v-46.537h-53.595z" /><path style="fill:#dbcb86" d="M180.46 159.334a4.056 4.056 0 0 0 4.049-4.064v-46.537h-53.595" /><path style="fill:#969590" d="M477.357 330.067c0 21.291-17.266 38.558-38.558 38.558H49.569c-21.291 0-38.558-17.258-38.558-38.558 0-21.291 17.258-38.558 38.558-38.558H438.8c21.283.008 38.557 17.266 38.557 38.558z" /><path style="fill:#84837e" d="M49.569 291.517H438.8c21.283 0 38.558 17.258 38.558 38.558 0 21.291-17.266 38.558-38.558 38.558" /><path style="fill:#757473" d="M438.8 379.636H49.569C22.229 379.636 0 357.408 0 330.067s22.229-49.569 49.569-49.569H438.8c27.341 0 49.569 22.229 49.569 49.569 0 27.341-22.228 49.569-49.569 49.569zM49.569 302.529c-15.187 0-27.538 12.351-27.538 27.538s12.351 27.538 27.538 27.538H438.8c15.179 0 27.538-12.351 27.538-27.538s-12.359-27.538-27.538-27.538H49.569z" /><circle style="fill:#b7b6ae" cx="51.035" cy="330.043" r="9.854" /><path style="fill:#c9c7bd" d="M44.064 323.104c3.844-3.86 10.09-3.86 13.942 0 3.86 3.828 3.844 10.09 0 13.942" /><path style="fill:#757473" d="M61.29 340.315c-5.664 5.679-14.864 5.679-20.512 0-5.671-5.648-5.671-14.848 0-20.512 5.656-5.664 14.856-5.664 20.512 0s5.664 14.864 0 20.512zM47.34 326.38c-2.048 2.032-2.048 5.341 0 7.389a5.211 5.211 0 0 0 7.389 0c2.048-2.048 2.048-5.356 0-7.389-2.04-2.032-5.356-2.032-7.389 0z" /><circle style="fill:#b7b6ae" cx="93.956" cy="330.043" r="9.854" /><path style="fill:#c9c7bd" d="M86.985 323.104c3.844-3.86 10.09-3.86 13.942 0 3.86 3.828 3.844 10.09 0 13.942" /><path style="fill:#757473" d="M104.212 340.315c-5.664 5.679-14.864 5.679-20.512 0-5.671-5.648-5.671-14.848 0-20.512 5.656-5.664 14.856-5.664 20.512 0 5.655 5.664 5.663 14.864 0 20.512zm-13.95-13.935c-2.048 2.032-2.048 5.341 0 7.389a5.211 5.211 0 0 0 7.389 0c2.048-2.048 2.048-5.356 0-7.389-2.033-2.032-5.357-2.032-7.389 0z" /><circle style="fill:#b7b6ae" cx="136.877" cy="330.043" r="9.854" /><path style="fill:#c9c7bd" d="M129.906 323.104c3.844-3.86 10.09-3.86 13.942 0 3.86 3.828 3.844 10.09 0 13.942" /><path style="fill:#757473" d="M147.141 340.315c-5.664 5.679-14.864 5.679-20.512 0-5.671-5.648-5.671-14.848 0-20.512 5.656-5.664 14.856-5.664 20.512 0 5.656 5.664 5.656 14.864 0 20.512zm-13.958-13.935c-2.048 2.032-2.048 5.341 0 7.389a5.211 5.211 0 0 0 7.389 0c2.048-2.048 2.048-5.356 0-7.389-2.033-2.032-5.357-2.032-7.389 0z" /><circle style="fill:#b7b6ae" cx="179.799" cy="330.043" r="9.854" /><path style="fill:#c9c7bd" d="M172.828 323.104c3.844-3.86 10.09-3.86 13.942 0 3.86 3.828 3.844 10.09 0 13.942" /><path style="fill:#757473" d="M190.062 340.315c-5.663 5.679-14.864 5.679-20.512 0-5.671-5.648-5.671-14.848 0-20.512 5.656-5.664 14.856-5.664 20.512 0 5.656 5.664 5.664 14.864 0 20.512zm-13.958-13.935c-2.048 2.032-2.048 5.341 0 7.389a5.211 5.211 0 0 0 7.389 0c2.048-2.048 2.048-5.356 0-7.389-2.032-2.032-5.356-2.032-7.389 0z" /><circle style="fill:#b7b6ae" cx="222.72" cy="330.043" r="9.854" /><path style="fill:#c9c7bd" d="M215.757 323.104c3.844-3.86 10.09-3.86 13.942 0 3.86 3.828 3.844 10.09 0 13.942" /><path style="fill:#757473" d="M232.984 340.315c-5.664 5.679-14.864 5.679-20.512 0-5.671-5.648-5.671-14.848 0-20.512 5.656-5.664 14.856-5.664 20.512 0 5.655 5.664 5.663 14.864 0 20.512zm-13.95-13.935c-2.048 2.032-2.048 5.341 0 7.389a5.211 5.211 0 0 0 7.389 0c2.048-2.048 2.048-5.356 0-7.389-2.041-2.032-5.365-2.032-7.389 0z" /><circle style="fill:#b7b6ae" cx="265.689" cy="330.043" r="9.854" /><path style="fill:#c9c7bd" d="M258.678 323.104c3.844-3.86 10.09-3.86 13.942 0 3.86 3.828 3.844 10.09 0 13.942" /><path style="fill:#757473" d="M275.905 340.315c-5.664 5.679-14.864 5.679-20.512 0-5.671-5.648-5.671-14.848 0-20.512 5.656-5.664 14.856-5.664 20.512 0 5.656 5.664 5.663 14.864 0 20.512zm-13.95-13.935c-2.048 2.032-2.048 5.341 0 7.389a5.211 5.211 0 0 0 7.389 0c2.048-2.048 2.048-5.356 0-7.389-2.033-2.032-5.357-2.032-7.389 0z" /><circle style="fill:#b7b6ae" cx="308.571" cy="330.043" r="9.854" /><path style="fill:#c9c7bd" d="M301.6 323.104c3.844-3.86 10.09-3.86 13.942 0 3.86 3.828 3.844 10.09 0 13.942" /><path style="fill:#757473" d="M318.834 340.315c-5.664 5.679-14.864 5.679-20.512 0-5.671-5.648-5.671-14.848 0-20.512 5.656-5.664 14.856-5.664 20.512 0s5.656 14.864 0 20.512zm-13.958-13.935c-2.048 2.032-2.048 5.341 0 7.389a5.211 5.211 0 0 0 7.389 0c2.048-2.048 2.048-5.356 0-7.389-2.032-2.032-5.356-2.032-7.389 0z" /><circle style="fill:#b7b6ae" cx="351.468" cy="330.043" r="9.854" /><path style="fill:#c9c7bd" d="M344.521 323.104c3.844-3.86 10.09-3.86 13.942 0 3.86 3.828 3.844 10.09 0 13.942" /><path style="fill:#757473" d="M361.756 340.315c-5.664 5.679-14.864 5.679-20.512 0-5.671-5.648-5.671-14.848 0-20.512 5.656-5.664 14.856-5.664 20.512 0s5.663 14.864 0 20.512zm-13.958-13.935c-2.048 2.032-2.048 5.341 0 7.389a5.211 5.211 0 0 0 7.389 0c2.048-2.048 2.048-5.356 0-7.389-2.033-2.032-5.357-2.032-7.389 0z" /><circle style="fill:#b7b6ae" cx="394.413" cy="330.043" r="9.854" /><path style="fill:#c9c7bd" d="M387.45 323.104c3.844-3.86 10.09-3.86 13.942 0 3.86 3.828 3.844 10.09 0 13.942" /><path style="fill:#757473" d="M404.677 340.315c-5.664 5.679-14.864 5.679-20.512 0-5.671-5.648-5.671-14.848 0-20.512 5.656-5.664 14.856-5.664 20.512 0 5.656 5.664 5.663 14.864 0 20.512zm-13.95-13.935c-2.048 2.032-2.048 5.341 0 7.389a5.211 5.211 0 0 0 7.389 0c2.048-2.048 2.048-5.356 0-7.389-2.041-2.032-5.365-2.032-7.389 0z" /><circle style="fill:#b7b6ae" cx="437.327" cy="330.043" r="9.854" /><path style="fill:#c9c7bd" d="M430.371 323.104c3.844-3.86 10.09-3.86 13.942 0 3.86 3.828 3.844 10.09 0 13.942" /><path style="fill:#757473" d="M447.598 340.315c-5.664 5.679-14.864 5.679-20.512 0-5.671-5.648-5.671-14.848 0-20.512 5.656-5.664 14.856-5.664 20.512 0 5.656 5.664 5.664 14.864 0 20.512zm-13.95-13.935c-2.048 2.032-2.048 5.341 0 7.389a5.211 5.211 0 0 0 7.389 0c2.048-2.048 2.048-5.356 0-7.389-2.04-2.032-5.356-2.032-7.389 0z" /></symbol><symbol viewBox="0 0 32 32" id="settingsImage"><path d="M22 28c0 .55-.45 1-1 1H11c-.55 0-1-.45-1-1 0-2.21 1.79-4 4-4h1v-2c0-.55.45-1 1-1s1 .45 1 1v2h1c2.21 0 4 1.79 4 4z" fill="#48B1DD" /><path d="M31 6v14c0 1.65-1.35 3-3 3H4c-1.65 0-3-1.35-3-3V6c0-1.65 1.35-3 3-3h24c1.65 0 3 1.35 3 3z" fill="#96CEE5" /><path d="M18 20h-4a1 1 0 0 1 0-2h4a1 1 0 0 1 0 2z" fill="#4391B2" /></symbol><symbol fill="none" viewBox="0 0 15 4" id="threeDots"><path d="M2.15 3.5c-.413 0-.81-.158-1.103-.44A1.47 1.47 0 0 1 .59 2c0-.398.164-.78.457-1.06C1.339.657 1.737.5 2.15.5c.413 0 .81.158 1.103.44.293.28.457.662.457 1.06s-.164.78-.457 1.06c-.292.282-.69.44-1.103.44Zm5.204 0c-.414 0-.811-.158-1.104-.44A1.47 1.47 0 0 1 5.793 2c0-.398.164-.78.457-1.06C6.543.657 6.94.5 7.354.5c.414 0 .81.158 1.103.44.293.28.458.662.458 1.06s-.165.78-.458 1.06c-.292.282-.69.44-1.103.44Zm5.203 0c-.414 0-.811-.158-1.104-.44A1.47 1.47 0 0 1 10.996 2c0-.398.164-.78.457-1.06.293-.282.69-.44 1.104-.44.414 0 .81.158 1.104.44.292.28.457.662.457 1.06s-.165.78-.457 1.06c-.293.282-.69.44-1.104.44Z" fill="#1B1B1B" /></symbol></defs></svg>